<?xml version="1.0" encoding="UTF-8"?>
<svg width="24px" height="24px" viewBox="0 0 24 24" version="1.1" xmlns="http://www.w3.org/2000/svg" xmlns:xlink="http://www.w3.org/1999/xlink">
    <!-- Generator: Sketch 46.2 (44496) - http://www.bohemiancoding.com/sketch -->
    <title>facebook-love</title>
    <desc>Created with Sketch.</desc>
    <defs></defs>
    <g id="Page-1" stroke="none" stroke-width="1" fill="none" fill-rule="evenodd">
        <g id="Hi-fi/Desktop-Result" transform="translate(-432.000000, -122.000000)" fill-rule="nonzero">
            <g id="facebook-love" transform="translate(432.000000, 122.000000)">
                <path d="M8.6787717,17.4816 L6.03364486,17.4816 C5.82536716,17.4816 5.65554072,17.312 5.65554072,17.104 L5.65554072,11.0384 C5.65554072,10.8304 5.82536716,10.6608 6.03364486,10.6608 L8.6787717,10.6608 C8.8870494,10.6608 9.05687583,10.8304 9.05687583,11.0384 L9.05687583,17.104 C9.0552737,17.312 8.88544726,17.4816 8.6787717,17.4816 Z M9.97970628,16.056 L9.97970628,11.7104 C9.97970628,10.6496 10.28251,9.584 10.8464619,8.6832 C11.1909212,8.1328 11.9631509,7.2512 12.3957276,6.7952 C12.4918558,6.6928 12.8411215,6.392 12.8411215,6.2272 C12.8411215,6.016 12.8651535,5.6752 12.8731642,5.04 C12.8779706,4.6368 13.2064085,4.3056 13.6101469,4.3088 L13.6277704,4.3088 C14.3343124,4.3216 14.5602136,4.9744 14.5602136,4.9744 C14.5602136,4.9744 15.164219,6.1648 14.600267,7.6208 C14.1244326,8.8512 14.0283044,8.9504 14.0283044,8.9504 C14.0283044,8.9504 13.8744993,9.1728 14.3615487,9.1632 C14.3615487,9.1632 17.3351135,9.1504 17.4376502,9.1504 C17.6571429,9.1504 18.3572764,9.3504 18.317223,10.2416 C18.2883845,10.9008 17.8782377,11.1312 17.6683578,11.2064 C17.6267023,11.2208 17.6218959,11.2784 17.6603471,11.3008 C17.8750334,11.4256 18.3140187,11.7408 18.3044059,12.224 C18.2915888,12.8096 18.0560748,13.0256 17.5658211,13.16 C17.5209613,13.1728 17.5129506,13.232 17.553004,13.2544 C17.7388518,13.36 18.0576769,13.6176 18.0384513,14.1392 C18.0192256,14.6704 17.634713,14.8576 17.4248331,14.9216 C17.3831776,14.9344 17.3751669,14.9888 17.412016,15.0144 C17.5449933,15.1056 17.7420561,15.312 17.7324433,15.736 C17.7276368,15.96 17.6523364,16.1232 17.5578104,16.24 C17.4088117,16.424 17.1748999,16.52 16.9377837,16.5216 L10.3401869,16.5344 C10.3385848,16.536 9.97970628,16.536 9.97970628,16.056 L9.97970628,16.056 Z" id="Shape" fill="#FFFFFF"></path>
                <ellipse id="Oval" fill="#FA1821" cx="11.9983979" cy="12" rx="11.9983979" ry="12"></ellipse>
                <path d="M11.9983979,8.6704 C11.4616822,5.4192 5.1012016,5.1712 5.1012016,10.048 C5.1012016,14.3696 11.9983979,18.3536 11.9983979,18.3536 C11.9983979,18.3536 18.8955941,14.3168 18.8955941,10.048 C18.8955941,5.1712 12.5351135,5.4192 11.9983979,8.6704 L11.9983979,8.6704 Z" id="Shape" fill="#FFFFFF"></path>
            </g>
        </g>
    </g>
</svg>